<mxfile host="app.diagrams.net" modified="2024-01-14T18:00:17.378Z" agent="Mozilla/5.0 (Windows NT 10.0; Win64; x64) AppleWebKit/537.36 (KHTML, like Gecko) Chrome/120.0.0.0 Safari/537.36" etag="1dW2Ojdkrgi5fKjepj0q" version="22.1.18" type="github">
  <diagram name="Strona-1" id="yKga03g6jz8WkU559Z67">
    <mxGraphModel dx="1434" dy="1915" grid="1" gridSize="10" guides="1" tooltips="1" connect="1" arrows="1" fold="1" page="1" pageScale="1" pageWidth="827" pageHeight="1169" math="0" shadow="0">
      <root>
        <mxCell id="0" />
        <mxCell id="1" parent="0" />
        <mxCell id="QNOfKq-FGGehNb9AUrvW-5" style="edgeStyle=orthogonalEdgeStyle;rounded=0;orthogonalLoop=1;jettySize=auto;html=1;exitX=1;exitY=0.5;exitDx=0;exitDy=0;entryX=0;entryY=0.5;entryDx=0;entryDy=0;" edge="1" parent="1" source="QNOfKq-FGGehNb9AUrvW-1" target="QNOfKq-FGGehNb9AUrvW-4">
          <mxGeometry relative="1" as="geometry" />
        </mxCell>
        <mxCell id="QNOfKq-FGGehNb9AUrvW-7" style="edgeStyle=orthogonalEdgeStyle;rounded=0;orthogonalLoop=1;jettySize=auto;html=1;exitX=1;exitY=0.5;exitDx=0;exitDy=0;" edge="1" parent="1" source="QNOfKq-FGGehNb9AUrvW-1" target="QNOfKq-FGGehNb9AUrvW-6">
          <mxGeometry relative="1" as="geometry" />
        </mxCell>
        <mxCell id="QNOfKq-FGGehNb9AUrvW-1" value="Pracownik:&lt;br&gt;ID:&lt;br&gt;Name:&lt;br&gt;Surname:&lt;br&gt;Position:&lt;br&gt;Total time:&lt;br&gt;Department:&lt;br&gt;HourCost:" style="rounded=0;whiteSpace=wrap;html=1;" vertex="1" parent="1">
          <mxGeometry x="100" y="90" width="170" height="170" as="geometry" />
        </mxCell>
        <mxCell id="QNOfKq-FGGehNb9AUrvW-11" style="edgeStyle=orthogonalEdgeStyle;rounded=0;orthogonalLoop=1;jettySize=auto;html=1;exitX=1;exitY=0.5;exitDx=0;exitDy=0;entryX=0;entryY=0.5;entryDx=0;entryDy=0;" edge="1" parent="1" source="QNOfKq-FGGehNb9AUrvW-4" target="QNOfKq-FGGehNb9AUrvW-9">
          <mxGeometry relative="1" as="geometry">
            <Array as="points">
              <mxPoint x="520" y="90" />
              <mxPoint x="520" y="250" />
            </Array>
          </mxGeometry>
        </mxCell>
        <mxCell id="QNOfKq-FGGehNb9AUrvW-13" style="edgeStyle=orthogonalEdgeStyle;rounded=0;orthogonalLoop=1;jettySize=auto;html=1;exitX=1;exitY=0.5;exitDx=0;exitDy=0;entryX=0;entryY=0.5;entryDx=0;entryDy=0;" edge="1" parent="1" source="QNOfKq-FGGehNb9AUrvW-4" target="QNOfKq-FGGehNb9AUrvW-12">
          <mxGeometry relative="1" as="geometry" />
        </mxCell>
        <mxCell id="QNOfKq-FGGehNb9AUrvW-15" style="edgeStyle=orthogonalEdgeStyle;rounded=0;orthogonalLoop=1;jettySize=auto;html=1;exitX=1;exitY=0.5;exitDx=0;exitDy=0;entryX=0;entryY=0.5;entryDx=0;entryDy=0;" edge="1" parent="1" source="QNOfKq-FGGehNb9AUrvW-4" target="QNOfKq-FGGehNb9AUrvW-14">
          <mxGeometry relative="1" as="geometry" />
        </mxCell>
        <mxCell id="QNOfKq-FGGehNb9AUrvW-16" style="edgeStyle=orthogonalEdgeStyle;rounded=0;orthogonalLoop=1;jettySize=auto;html=1;exitX=1;exitY=0.5;exitDx=0;exitDy=0;entryX=0;entryY=0.5;entryDx=0;entryDy=0;" edge="1" parent="1" source="QNOfKq-FGGehNb9AUrvW-4" target="QNOfKq-FGGehNb9AUrvW-17">
          <mxGeometry relative="1" as="geometry">
            <mxPoint x="529.9999999999998" y="20" as="targetPoint" />
          </mxGeometry>
        </mxCell>
        <mxCell id="QNOfKq-FGGehNb9AUrvW-18" style="edgeStyle=orthogonalEdgeStyle;rounded=0;orthogonalLoop=1;jettySize=auto;html=1;exitX=1;exitY=0.5;exitDx=0;exitDy=0;entryX=0;entryY=0.5;entryDx=0;entryDy=0;" edge="1" parent="1" source="QNOfKq-FGGehNb9AUrvW-4" target="QNOfKq-FGGehNb9AUrvW-19">
          <mxGeometry relative="1" as="geometry">
            <mxPoint x="530" y="-70" as="targetPoint" />
          </mxGeometry>
        </mxCell>
        <mxCell id="QNOfKq-FGGehNb9AUrvW-4" value="Manager" style="rounded=0;whiteSpace=wrap;html=1;" vertex="1" parent="1">
          <mxGeometry x="390" y="60" width="100" height="60" as="geometry" />
        </mxCell>
        <mxCell id="QNOfKq-FGGehNb9AUrvW-10" style="edgeStyle=orthogonalEdgeStyle;rounded=0;orthogonalLoop=1;jettySize=auto;html=1;exitX=1;exitY=0.5;exitDx=0;exitDy=0;" edge="1" parent="1" source="QNOfKq-FGGehNb9AUrvW-6" target="QNOfKq-FGGehNb9AUrvW-9">
          <mxGeometry relative="1" as="geometry" />
        </mxCell>
        <mxCell id="QNOfKq-FGGehNb9AUrvW-6" value="Worker" style="rounded=0;whiteSpace=wrap;html=1;" vertex="1" parent="1">
          <mxGeometry x="380" y="240" width="90" height="60" as="geometry" />
        </mxCell>
        <mxCell id="QNOfKq-FGGehNb9AUrvW-9" value="Work Time start stop" style="rounded=1;whiteSpace=wrap;html=1;" vertex="1" parent="1">
          <mxGeometry x="570" y="220" width="120" height="60" as="geometry" />
        </mxCell>
        <mxCell id="QNOfKq-FGGehNb9AUrvW-12" value="Create new project" style="rounded=1;whiteSpace=wrap;html=1;" vertex="1" parent="1">
          <mxGeometry x="570" y="130" width="120" height="60" as="geometry" />
        </mxCell>
        <mxCell id="QNOfKq-FGGehNb9AUrvW-14" value="Modfiy project" style="rounded=1;whiteSpace=wrap;html=1;" vertex="1" parent="1">
          <mxGeometry x="570" y="50" width="120" height="60" as="geometry" />
        </mxCell>
        <mxCell id="QNOfKq-FGGehNb9AUrvW-22" style="edgeStyle=orthogonalEdgeStyle;rounded=0;orthogonalLoop=1;jettySize=auto;html=1;exitX=1;exitY=0.5;exitDx=0;exitDy=0;" edge="1" parent="1" source="QNOfKq-FGGehNb9AUrvW-17" target="QNOfKq-FGGehNb9AUrvW-21">
          <mxGeometry relative="1" as="geometry" />
        </mxCell>
        <mxCell id="QNOfKq-FGGehNb9AUrvW-17" value="Generate raport" style="rounded=1;whiteSpace=wrap;html=1;" vertex="1" parent="1">
          <mxGeometry x="570" y="-30" width="120" height="60" as="geometry" />
        </mxCell>
        <mxCell id="QNOfKq-FGGehNb9AUrvW-19" value="Set employee department" style="rounded=1;whiteSpace=wrap;html=1;" vertex="1" parent="1">
          <mxGeometry x="570" y="-100" width="120" height="60" as="geometry" />
        </mxCell>
        <mxCell id="QNOfKq-FGGehNb9AUrvW-21" value="Project raport" style="rounded=1;whiteSpace=wrap;html=1;" vertex="1" parent="1">
          <mxGeometry x="750" y="-80" width="120" height="60" as="geometry" />
        </mxCell>
        <mxCell id="QNOfKq-FGGehNb9AUrvW-23" value="Projekt:&lt;br&gt;ID:&lt;br&gt;Name:&lt;br&gt;Position:&lt;br&gt;Total time:&lt;br&gt;Department:&lt;br&gt;TotalCost:" style="rounded=0;whiteSpace=wrap;html=1;" vertex="1" parent="1">
          <mxGeometry x="930" y="130" width="170" height="170" as="geometry" />
        </mxCell>
      </root>
    </mxGraphModel>
  </diagram>
</mxfile>
